<svg viewBox="0 0 24 24" xmlns="http://www.w3.org/2000/svg">
<path d="M12.3867 20.332C11.7715 19.7865 11.0762 19.219 10.3409 18.6152H10.3313C7.74185 16.4979 4.80711 14.102 3.51094 11.2312C3.08509 10.3172 2.85942 9.32279 2.84901 8.31453C2.84617 6.93108 3.40103 5.60487 4.38822 4.63563C5.3754 3.66639 6.71157 3.13595 8.09474 3.16419C9.22079 3.16597 10.3226 3.49141 11.2689 4.10174C11.6847 4.37163 12.0609 4.69809 12.3867 5.07172C12.7143 4.69956 13.0906 4.37329 13.5055 4.10174C14.4514 3.49129 15.5529 3.16583 16.6787 3.16419C18.0618 3.13595 19.398 3.66639 20.3852 4.63563C21.3724 5.60487 21.9272 6.93108 21.9244 8.31453C21.9147 9.3244 21.689 10.3205 21.2625 11.2359C19.9663 14.1068 17.0325 16.5017 14.443 18.6152L14.4335 18.6229C13.6972 19.2228 13.0028 19.7903 12.3877 20.3396L12.3867 20.332ZM8.09474 5.07172C7.20632 5.06061 6.34942 5.40062 5.71032 6.01786C5.09456 6.62271 4.75041 7.45142 4.75648 8.31453C4.76736 9.04941 4.93379 9.77366 5.24489 10.4395C5.85674 11.6782 6.68232 12.7992 7.68367 13.751C8.62885 14.7048 9.71615 15.628 10.6566 16.4044C10.9169 16.619 11.1821 16.8355 11.4472 17.052L11.6141 17.1884C11.8688 17.3963 12.132 17.6119 12.3867 17.8236L12.3991 17.8122L12.4048 17.8074H12.4105L12.4191 17.8007H12.4239H12.4287L12.4458 17.7864L12.4849 17.7549L12.4916 17.7492L12.5021 17.7416H12.5078L12.5164 17.7339L13.1497 17.2141L13.3157 17.0778C13.5837 16.8593 13.8488 16.6428 14.1092 16.4282C15.0496 15.6519 16.1379 14.7296 17.0831 13.771C18.0845 12.8197 18.9101 11.699 19.5218 10.4605C19.8386 9.78887 20.0074 9.05705 20.0169 8.31453C20.0208 7.45408 19.6768 6.62855 19.0631 6.02549C18.4252 5.40547 17.5682 5.06265 16.6787 5.07172C15.5932 5.0625 14.5555 5.51749 13.8269 6.32211L12.3867 7.98167L10.9465 6.32211C10.2179 5.51749 9.1802 5.0625 8.09474 5.07172Z" fill="#AFB6B3"/>
</svg>
